<svg width="61" height="59" viewBox="0 0 61 59" fill="none" xmlns="http://www.w3.org/2000/svg">
<path fill-rule="evenodd" clip-rule="evenodd" d="M42.8079 30.0385C43.0087 30.2098 43.168 30.4132 43.2767 30.6372C43.3854 30.8612 43.4414 31.1014 43.4414 31.3439C43.4414 31.5864 43.3854 31.8265 43.2767 32.0505C43.168 32.2745 43.0087 32.478 42.8079 32.6492L29.8704 43.7117C29.6701 43.8835 29.4321 44.0197 29.1702 44.1126C28.9082 44.2056 28.6274 44.2534 28.3438 44.2534C28.0601 44.2534 27.7793 44.2056 27.5173 44.1126C27.2554 44.0197 27.0174 43.8835 26.8171 43.7117L20.3484 38.1805C20.1479 38.0091 19.9889 37.8056 19.8804 37.5816C19.7719 37.3576 19.716 37.1176 19.716 36.8751C19.716 36.6327 19.7719 36.3926 19.8804 36.1687C19.9889 35.9447 20.1479 35.7412 20.3484 35.5697C20.7533 35.2235 21.3024 35.029 21.875 35.029C22.1585 35.029 22.4393 35.0768 22.7012 35.1696C22.9632 35.2623 23.2012 35.3983 23.4016 35.5697L28.3438 39.7993L39.7546 30.0385C39.9549 29.8668 40.1929 29.7306 40.4548 29.6376C40.7168 29.5447 40.9976 29.4968 41.2813 29.4968C41.5649 29.4968 41.8457 29.5447 42.1077 29.6376C42.3696 29.7306 42.6076 29.8668 42.8079 30.0385Z" fill="#28887A"/>
<path d="M30.5 3.6875C33.3594 3.6875 36.1016 4.65876 38.1235 6.38761C40.1454 8.11646 41.2812 10.4613 41.2812 12.9062V14.75H19.7188V12.9062C19.7188 10.4613 20.8546 8.11646 22.8765 6.38761C24.8984 4.65876 27.6406 3.6875 30.5 3.6875ZM45.5938 14.75V12.9062C45.5938 9.4833 44.0035 6.20054 41.1729 3.78015C38.3423 1.35976 34.5031 0 30.5 0C26.4969 0 22.6577 1.35976 19.8271 3.78015C16.9965 6.20054 15.4062 9.4833 15.4062 12.9062V14.75H0.3125V51.625C0.3125 53.581 1.2212 55.4568 2.8387 56.8399C4.45621 58.223 6.65001 59 8.9375 59H52.0625C54.35 59 56.5438 58.223 58.1613 56.8399C59.7788 55.4568 60.6875 53.581 60.6875 51.625V14.75H45.5938ZM4.625 18.4375H56.375V51.625C56.375 52.603 55.9206 53.5409 55.1119 54.2325C54.3031 54.924 53.2062 55.3125 52.0625 55.3125H8.9375C7.79375 55.3125 6.69685 54.924 5.8881 54.2325C5.07935 53.5409 4.625 52.603 4.625 51.625V18.4375Z" fill="#28887A"/>
</svg>
