<svg width="88" height="72" viewBox="0 0 88 72" fill="none" xmlns="http://www.w3.org/2000/svg">
<path d="M7 19.498C7 18.0399 7.74079 16.6414 9.05941 15.6103C10.378 14.5793 12.1664 14 14.0312 14H56.2188C58.0836 14 59.872 14.5793 61.1906 15.6103C62.5092 16.6414 63.25 18.0399 63.25 19.498V24.996H68.0313C69.0847 24.9968 70.1245 25.1826 71.0738 25.5398C72.0231 25.897 72.8576 26.4164 73.5156 27.0596L80.4578 33.8405C81.4567 34.8162 82.0006 36.0288 82 37.2786V45.1555C82 46.6136 81.2592 48.0121 79.9406 49.0432C78.622 50.0742 76.8336 50.6535 74.9688 50.6535H72.625C72.625 52.5977 71.6373 54.4623 69.8791 55.8371C68.121 57.2118 65.7364 57.9842 63.25 57.9842C60.7636 57.9842 58.379 57.2118 56.6209 55.8371C54.8627 54.4623 53.875 52.5977 53.875 50.6535H30.4375C30.4402 51.6306 30.193 52.5983 29.7106 53.4996C29.2281 54.401 28.5201 55.2178 27.628 55.9022C26.736 56.5865 25.6781 57.1244 24.5163 57.4844C23.3546 57.8444 22.1126 58.0191 20.8632 57.9983C19.6139 57.9776 18.3825 57.7617 17.2414 57.3634C16.1003 56.9652 15.0725 56.3926 14.2185 55.6792C13.3645 54.9659 12.7015 54.1263 12.2684 53.2097C11.8354 52.2931 11.6411 51.3181 11.6969 50.3419C10.3237 49.964 9.13433 49.2621 8.29302 48.3331C7.45171 47.4041 6.99992 46.2938 7 45.1555L7 19.498ZM13.0656 46.8269C13.914 45.7428 15.1083 44.8498 16.5312 44.2356C17.9542 43.6214 19.5569 43.3069 21.1821 43.3232C22.8073 43.3395 24.3992 43.6859 25.8016 44.3284C27.204 44.9709 28.3686 45.8875 29.1812 46.9881H55.1312C55.954 45.8738 57.1374 44.9485 58.5625 44.3051V19.498C58.5625 19.012 58.3156 18.5458 57.876 18.2021C57.4365 17.8584 56.8404 17.6653 56.2188 17.6653H14.0312C13.4096 17.6653 12.8135 17.8584 12.374 18.2021C11.9344 18.5458 11.6875 19.012 11.6875 19.498V45.1555C11.6871 45.5082 11.817 45.8536 12.0614 46.15C12.3059 46.4465 12.6546 46.6815 13.0656 46.8269ZM63.25 43.3228C64.8956 43.3228 66.5122 43.6616 67.9374 44.305C69.3625 44.9484 70.5459 45.8738 71.3688 46.9881H74.9688C75.5904 46.9881 76.1865 46.7951 76.626 46.4514C77.0656 46.1077 77.3125 45.6415 77.3125 45.1555V37.275C77.3116 36.8591 77.1297 36.4558 76.7969 36.1314L69.8594 29.3505C69.6402 29.1358 69.3621 28.9625 69.0456 28.8432C68.7292 28.7239 68.3825 28.6618 68.0313 28.6614H63.25V43.3228ZM21.0625 46.9881C19.8193 46.9881 18.627 47.3743 17.7479 48.0617C16.8689 48.7491 16.375 49.6814 16.375 50.6535C16.375 51.6256 16.8689 52.5579 17.7479 53.2453C18.627 53.9327 19.8193 54.3188 21.0625 54.3188C22.3057 54.3188 23.498 53.9327 24.3771 53.2453C25.2561 52.5579 25.75 51.6256 25.75 50.6535C25.75 49.6814 25.2561 48.7491 24.3771 48.0617C23.498 47.3743 22.3057 46.9881 21.0625 46.9881ZM63.25 46.9881C62.0068 46.9881 60.8145 47.3743 59.9354 48.0617C59.0564 48.7491 58.5625 49.6814 58.5625 50.6535C58.5625 51.6256 59.0564 52.5579 59.9354 53.2453C60.8145 53.9327 62.0068 54.3188 63.25 54.3188C64.4932 54.3188 65.6855 53.9327 66.5646 53.2453C67.4436 52.5579 67.9375 51.6256 67.9375 50.6535C67.9375 49.6814 67.4436 48.7491 66.5646 48.0617C65.6855 47.3743 64.4932 46.9881 63.25 46.9881Z" fill="#28887A"/>
</svg>
