<svg width="136" height="78" viewBox="0 0 136 78" fill="none" xmlns="http://www.w3.org/2000/svg">
<g clip-path="url(#clip0_48_15)">
<path d="M39.3476 27.9146C40.1683 27.6789 40.9401 27.3035 41.6191 26.81C42.2982 26.3164 42.871 25.7143 43.3049 25.0379C43.7389 24.3616 44.0255 23.6244 44.1483 22.8683C44.2711 22.1122 44.2278 21.3521 44.0208 20.6313C43.8138 19.9106 43.4472 19.2433 42.9419 18.6676C42.4366 18.0919 41.8025 17.6191 41.0758 17.2761C40.3491 16.9331 39.5441 16.7267 38.7067 16.6686C37.8692 16.6105 37.0158 16.702 36.1951 16.9377C34.5376 17.4137 33.1141 18.4484 32.2377 19.8143C31.3613 21.1802 31.1038 22.7653 31.5218 24.2209C31.9399 25.6765 32.9992 26.8835 34.4668 27.5762C35.9344 28.2689 37.6901 28.3906 39.3476 27.9146ZM59.1653 34.1054C60.8228 33.6294 62.2463 32.5946 63.1227 31.2288C63.9991 29.8629 64.2566 28.2778 63.8386 26.8222C63.4205 25.3665 62.3612 24.1596 60.8936 23.4669C59.4259 22.7742 57.6703 22.6525 56.0128 23.1285C54.3554 23.6045 52.9319 24.6392 52.0555 26.0051C51.1791 27.371 50.9215 28.9561 51.3396 30.4117C51.7576 31.8674 52.817 33.0743 54.2846 33.767C55.7522 34.4597 57.5078 34.5814 59.1653 34.1054ZM31.0334 38.2238C31.4514 39.6795 31.1939 41.2646 30.3175 42.6305C29.4411 43.9963 28.0176 45.0311 26.3602 45.5071C24.7027 45.9831 22.947 45.8614 21.4794 45.1687C20.0118 44.476 18.9525 43.2691 18.5344 41.8134C18.1164 40.3578 18.3739 38.7727 19.2503 37.4068C20.1267 36.0409 21.5502 35.0062 23.2077 34.5302C24.8652 34.0542 26.6208 34.1759 28.0884 34.8686C29.556 35.5613 30.6154 36.7682 31.0334 38.2238ZM39.4215 59.5794C41.079 59.1034 42.5025 58.0687 43.3789 56.7028C44.2553 55.3369 44.5128 53.7518 44.0947 52.2962C43.6767 50.8406 42.6174 49.6336 41.1497 48.9409C39.6821 48.2482 37.9265 48.1265 36.269 48.6025C34.6116 49.0785 33.188 50.1133 32.3116 51.4791C31.4352 52.845 31.1777 54.4301 31.5958 55.8858C32.0138 57.3414 33.0732 58.5483 34.5408 59.241C36.0084 59.9337 37.764 60.0554 39.4215 59.5794Z" fill="#28887A"/>
<path d="M75.8306 29.3193C79.1407 40.845 70.7726 41.0104 63.1445 41.1614C58.6014 41.2501 54.3179 41.3317 52.9343 43.8164C51.1397 47.037 52.8668 51.0404 54.5403 54.9206C56.9328 60.4717 59.2226 65.775 50.9066 68.1633C44.3144 70.0565 37.3773 70.1904 30.9724 68.5481C24.5675 66.9058 18.9825 63.5611 14.9237 58.9369C10.8649 54.3127 8.51451 48.6166 8.16987 42.5691C7.82522 36.5216 9.50174 30.3942 12.9874 24.9618C16.4731 19.5293 21.6114 15.0359 27.7525 12.0496C33.8936 9.0633 40.7618 7.71833 47.4884 8.18475C54.2151 8.65117 60.4981 10.908 65.5429 14.6699C70.5878 18.4319 74.1679 23.5299 75.8306 29.3193ZM49.8558 64.5043C52.4014 63.7732 52.4009 63.0961 52.3998 63.0766C52.5713 62.4491 52.4288 61.2305 51.5156 58.8985C51.2807 58.3005 50.9726 57.5889 50.6404 56.809C49.9361 55.1734 49.1177 53.2657 48.6124 51.6008C47.8278 49.0258 47.2664 45.6105 49.1139 42.2915C50.2131 40.3242 52.0271 39.1656 53.7641 38.5083C55.4073 37.8859 57.1745 37.6319 58.7063 37.5009C60.2163 37.3722 61.8265 37.3415 63.2752 37.3136L63.4003 37.3094C64.9522 37.2795 66.3508 37.2502 67.6503 37.1423C70.5264 36.9025 71.5039 36.3644 71.8043 36.0444C71.9353 35.9038 72.8843 34.7639 71.6643 30.5158C70.2094 25.4501 67.0768 20.9893 62.6626 17.6976C58.2483 14.406 52.7507 12.4312 46.8649 12.0231C40.9791 11.615 34.9694 12.7918 29.596 15.4048C24.2225 18.0178 19.7265 21.9496 16.6765 26.703C13.6265 31.4564 12.1596 36.8178 12.4611 42.1094C12.7627 47.401 14.8192 52.385 18.3707 56.4312C21.9222 60.4774 26.809 63.4041 32.4133 64.8411C38.0176 66.2781 44.0876 66.1609 49.8558 64.5043Z" fill="#28887A"/>
</g>
<g clip-path="url(#clip1_48_15)">
<path d="M135.322 8.46513C135.64 8.73662 135.862 9.10372 135.954 9.5116C136.046 9.91948 136.004 10.3462 135.833 10.7281C129.905 24.0194 117.454 42.3869 108.34 51.9581C105.783 54.6319 102.633 56.668 99.1449 57.9024C99.0751 58.782 98.9124 59.9871 98.5249 61.2659C97.746 63.8195 95.9403 66.997 91.9064 68.0084C88 68.9404 83.951 69.114 79.9791 68.5199C79.2416 68.3982 78.5137 68.2234 77.8014 67.9967C77.1443 67.795 76.5315 67.4702 75.9956 67.0396C75.6411 66.7412 75.369 66.357 75.2051 65.9236C74.9987 65.369 75.0042 64.7578 75.2206 64.207C75.5888 63.2576 76.4451 62.7345 77.007 62.4555C78.5338 61.6921 79.4289 60.7001 80.3666 59.2548C80.7348 58.6968 81.0796 58.1039 81.4788 57.4258L81.9321 56.6585C82.5173 55.6704 83.1954 54.566 84.0479 53.3725C86.0939 50.5089 88.7018 49.7881 90.8136 49.9005C91.3045 49.9315 91.754 49.9935 92.1621 50.0865C92.4024 49.42 92.7124 48.614 93.0844 47.7305C94.0958 45.3319 95.6341 42.2319 97.684 39.7131C106.116 29.3669 121.632 15.6649 133.012 8.31013C133.363 8.08398 133.777 7.97691 134.193 8.00484C134.609 8.03276 135.005 8.19419 135.322 8.46513ZM92.2319 54.1591C91.7185 53.9331 91.1684 53.8018 90.6083 53.7716C89.655 53.7213 88.3879 53.9654 87.2021 55.6278C86.4388 56.6934 85.8265 57.6893 85.2646 58.6386L84.8578 59.3245C84.447 60.0259 84.0324 60.7272 83.6178 61.3705C82.8324 62.6416 81.8365 63.7698 80.6728 64.7069C83.3465 65.1409 87.3998 65.137 90.9686 64.2419C93.1348 63.7033 94.2353 62.037 94.8165 60.1344C95.1019 59.1903 95.266 58.2137 95.3048 57.2281L92.2319 54.1591ZM97.8119 54.2599C98.2769 54.1049 98.8853 53.8724 99.5866 53.5508C101.817 52.5126 103.835 51.067 105.535 49.2882C112.897 41.5537 122.631 27.7045 128.986 15.8431C118.95 23.3103 107.418 33.9006 100.691 42.1621C98.9783 44.2663 97.6104 46.9788 96.6533 49.2379C96.1844 50.3539 95.824 51.3304 95.5876 52.0279L97.8119 54.2599Z" fill="#28887A"/>
</g>
<defs>
<clipPath id="clip0_48_15">
<rect width="69.3557" height="60.91" fill="white" transform="translate(0.762878 19.1919) rotate(-16.0235)"/>
</clipPath>
<clipPath id="clip1_48_15">
<rect width="62" height="62" fill="white" transform="translate(74 8)"/>
</clipPath>
</defs>
</svg>
