<svg width="39" height="50" viewBox="0 0 39 50" fill="none" xmlns="http://www.w3.org/2000/svg">
<path d="M0 34.9321C0.694418 40.8857 7.09901 45.1107 16.849 45.6571V50H21.7428V45.6571C32.3936 45.0179 39 40.5214 39 33.8714C39 28.1929 34.5567 24.9071 25.1304 23.0571L21.7428 22.3893V8.81071C27.0072 9.20357 30.5591 11.3607 31.4552 14.5821H38.3525C37.5736 8.86786 31.1268 4.76786 21.7428 4.31429V0H16.849V4.40357C7.7512 5.225 1.50614 9.66071 1.50614 15.675C1.50614 20.8679 6.03862 24.5429 13.9916 26.0929L16.8537 26.6714V41.0679C11.4626 40.4607 7.7512 38.2107 6.85503 34.9321H0ZM15.9106 21.2321C11.0168 20.2929 8.40339 18.2857 8.40339 15.4607C8.40339 12.0893 11.7066 9.6 16.849 8.93214V21.4143L15.9106 21.2321ZM23.3756 27.9179C29.4142 29.0714 32.0652 30.9857 32.0652 34.2357C32.0652 38.1536 28.1896 40.7643 21.7428 41.1607V27.6071L23.3756 27.9179Z" fill="#28887A"/>
</svg>
